<svg width="25" height="25" viewBox="0 -1 11 12" fill="none" xmlns="http://www.w3.org/2000/svg">
<path d="M10.0688 3.13477C10.0688 2.66439 10.0439 2.25765 9.99414 1.91455C9.94434 1.56592 9.87516 1.29753 9.78662 1.10938H6.73193V9.8501C6.73193 10.0825 6.74023 10.2817 6.75684 10.4478C6.77897 10.6082 6.81217 10.7521 6.85645 10.8794C6.97819 10.9126 7.10824 10.9347 7.24658 10.9458C7.39046 10.9513 7.54541 10.9541 7.71143 10.9541H8.4585V12.1162C8.02686 12.0609 7.62012 12.0277 7.23828 12.0166C6.85645 12.0055 6.48291 12 6.11768 12C5.60856 12 5.11882 12.0055 4.64844 12.0166C4.17806 12.0277 3.69385 12.0609 3.1958 12.1162V10.9541H3.93457C4.10059 10.9541 4.25553 10.9513 4.39941 10.9458C4.54329 10.9403 4.67334 10.9181 4.78955 10.8794C4.87256 10.6636 4.91406 10.3647 4.91406 9.98291V1.10938H1.85938C1.77083 1.29753 1.70166 1.56592 1.65186 1.91455C1.60205 2.25765 1.57715 2.66439 1.57715 3.13477H0.431641C0.431641 2.94661 0.426107 2.73079 0.415039 2.4873C0.409505 2.23828 0.398438 1.98372 0.381836 1.72363C0.370768 1.45801 0.359701 1.19515 0.348633 0.935059C0.343099 0.669434 0.340332 0.423177 0.340332 0.196289C0.462077 0.135417 0.694499 0.0994466 1.0376 0.0883789C1.38623 0.0773112 1.8068 0.0717773 2.29932 0.0717773C2.36019 0.0717773 2.47917 0.0745443 2.65625 0.0800781C2.83887 0.0800781 3.04915 0.0828451 3.28711 0.0883789C3.5306 0.0939128 3.79069 0.0994466 4.06738 0.10498C4.34408 0.10498 4.60417 0.107747 4.84766 0.113281C5.09668 0.118815 5.31527 0.124349 5.50342 0.129883C5.6971 0.129883 5.83268 0.129883 5.91016 0.129883C6.05404 0.129883 6.23389 0.129883 6.44971 0.129883C6.66553 0.124349 6.89242 0.118815 7.13037 0.113281C7.36833 0.107747 7.60628 0.10498 7.84424 0.10498C8.08773 0.0994466 8.30632 0.0939128 8.5 0.0883789C8.69922 0.0828451 8.86247 0.0800781 8.98975 0.0800781C9.11702 0.0745443 9.18896 0.0717773 9.20557 0.0717773C9.70915 0.0717773 10.1353 0.0800781 10.4839 0.0966797C10.8325 0.107747 11.0677 0.140951 11.1895 0.196289C11.1895 0.423177 11.1839 0.669434 11.1729 0.935059C11.1673 1.19515 11.159 1.45801 11.1479 1.72363C11.1369 1.98372 11.1258 2.23828 11.1147 2.4873C11.1092 2.73079 11.1064 2.94661 11.1064 3.13477H10.0688Z" fill="white"/>
</svg>
